<svg viewBox="0 0 500 500" xmlns="http://www.w3.org/2000/svg">
  <defs>
    <linearGradient id="linearGradientLegs">
      <stop offset="0%" stop-color="#202020" />
      <stop offset="25%" stop-color="#a0a0a0" />
      <stop offset="100%" stop-color="#000000" />
    </linearGradient>
    <linearGradient id="linearGradientTop">
      <stop offset="0%" stop-color="#000000" />
      <stop offset="50%" stop-color="#434343" />
      <stop offset="100%" stop-color="#000000" />
    </linearGradient>
    <linearGradient id="linearGradientBottom">
      <stop offset="0%" stop-color="#000000" />
      <stop offset="22%" stop-color="#434343" />
      <stop offset="78%" stop-color="#434343" />
      <stop offset="100%" stop-color="#000000" />
    </linearGradient>
    <linearGradient id="linearGradientScale">
      <stop offset="0%" stop-color="#404040" />
      <stop offset="20%" stop-color="#ffffff" />
      <stop offset="80%" stop-color="#ffffff" />
      <stop offset="100%" stop-color="#202020" />
    </linearGradient>
    <linearGradient id="linearGradientPendulum">
      <stop offset="0%" stop-color="#d0d0d0" />
      <stop offset="26%" stop-color="#ffffff" />
      <stop offset="74%" stop-color="#ffffff" />
      <stop offset="100%" stop-color="#d0d0d0" />
    </linearGradient>
    <linearGradient id="linearGradientWeight">
      <stop offset="0%" stop-color="#646464" />
      <stop offset="31%" stop-color="#c0c0c0" />
      <stop offset="50%" stop-color="#d4d4d4" />
      <stop offset="69%" stop-color="#c0c0c0" />
      <stop offset="100%" stop-color="#646464" />
    </linearGradient>
  </defs>

  <g fill="darkblue" stroke="#00000060" stroke-linejoin="round">
    <!-- legs -->
    <g transform="translate(118 469)" fill="url(#linearGradientLegs)" stroke="#0b0b0b60">
      <path d="M0 0v 8 a 60 60 0 0 1 -36 0 v -8 z" />
      <path transform="translate(300)" d="M0 0v 8 a 60 60 0 0 1 -36 0 v -8 z" />
    </g>
    <!-- <path d="M 250 10 l 30 20 h -60 z" /> -->

    <!-- top -->
    <g id="pendulumTop" cursor="pointer">
      <path fill="url(#linearGradientTop)" d="M 220 30 l 24 -16 a 10 10 0 0 1 12 0 l 24 16 z" />
    </g>
    <!--
     <path d="M 280 30 l 152 440 h -364 l 152 -440 z" />
    -->
    <!-- middle -->
    <path fill="#282828" d="M 280 30 l 98 283 h -256 l 98 -283 z" />
    <path fill="#5b5b5b" d="M 270 45 l 92 268 h -224 l 92 -268 z" />

    <g font-size="12" font-family="monospace" font-weight="600" fill="#d0d0d0" stroke="none"
      transform="translate(246 41)">
      <text id="bpmLabel" text-anchor="end">30</text>
      <text text-anchor="start" transform="translate(10)">bpm</text>
    </g>
    <!-- scale -->
    <path fill="url(#linearGradientScale)" d="M 270 45 v 268 h -40 v -268 z" />
    <!-- <path d="M 378 313 l 54 156 h -364 l 54 -156 z" /> -->

    <!-- ticks -->
    <g transform="translate(230 60)" fill="#000" opacity="0.8">
      <g id="tickGroup">
        <rect x="13" y="-10" width="14" height="1" />
        <rect x="2" width="25" height="1" />
        <rect x="13" y="10" width="14" height="1" />
        <rect x="13" y="20" width="25" height="1" />
      </g>
      <use href="#tickGroup" transform="translate(0 40)" />
      <use href="#tickGroup" transform="translate(0 80)" />
      <use href="#tickGroup" transform="translate(0 120)" />
      <use href="#tickGroup" transform="translate(0 160)" />
      <use href="#tickGroup" transform="translate(0 200)" />

      <g font-size="11" font-family="monospace" font-weight="600" stroke="none">
        <g transform="translate(12 -1) rotate(-90)">
          <text>40</text>
          <text transform="translate(-40)">80</text>
          <text transform="translate(-80)">120</text>
          <text transform="translate(-120)">160</text>
          <text transform="translate(-160)">200</text>
          <text transform="translate(-200)">240</text>
        </g>
        <g transform="translate(36 19) rotate(-90)">
          <text>60</text>
          <text transform="translate(-40)">100</text>
          <text transform="translate(-80)">140</text>
          <text transform="translate(-120)">180</text>
          <text transform="translate(-160)">220</text>
          <text transform="translate(-200)">260</text>
        </g>
      </g>
    </g>

    <!-- pendulum  -->
    <g transform="translate(245 36)">
      <g id="pendulum">
        <rect fill="url(#linearGradientPendulum)" y="5" width="10" height="300" rx="5" />
        <path fill="none" stroke="#d0d0d0"
          d="M1 14.5h8m0 10h-8m0 10h8m0 10h-8m0 10h8m0 10h-8m0 10h8m0 10h-8m0 10h8m0 10h-8m0 10h8m0 10h-8m0 10h8m0 10h-8m0 10h8m0 10h-8m0 10h8m0 10h-8m0 10h8m0 10h-8m0 10h8m0 10h-8m0 10h8m0 10h-8" />
        <g id="pendulumWeight" transform="translate(0 0)">
          <path fill="url(#linearGradientWeight)"
            d="M-15 24.5a10 10 0 0 0 10 -10h20a10 10 0 0 0 10 10v6a14 14 0 0 1 -14 14h-12a14 14 0 0 1 -14 -14z" />
          <!-- <path fill="url(#linearGradientPendulum)" d="M15 15a10 10 0 0 0 2 6v4a2 2 0 0 1 -2 2h-20a2 2 0 0 1 -2 -2v-4a 10 10 0 0 0 2 -6z" /> -->
          <g stroke-linejoin="miter" fill="url(#linearGradientPendulum)">
            <g id="pendulumWeightArrowUp" cursor="pointer">
              <path d="M14 15a1 1 0 0 1 1 1v13h-20v-13a1 1 0 0 1 1 -1z" />
            </g>
            <g id="pendulumWeightArrowDown" cursor="pointer">
              <path d="M15 30v13a1 1 0 0 1 -1 1h-18a1 1 0 0 1 -1 -1v-13z" />
            </g>
          </g>
        </g>
        <circle fill="#505050" r="2" cx="5" cy="277" />
      </g>
    </g>

    <!-- bottom -->
    <path fill="url(#linearGradientBottom)"
      d="M 378 313 l 50 145 a 10 10 0 0 1 -11 11 h -334 a 10 10 0 0 1 -11 -11 l 50 -145 z" />
  </g>
  <!-- <circle cx="82" cy="459" r="10" stroke="blueviolet" fill="magenta" opacity="0.8" /> -->
  <script>
    var intervalID;
    var time0;
    var bpmMin = 30;
    var bpmMax = 260;
    var bpmNow = bpmMin;
    var angleMin = 10;
    var angleMax = 60;
    var angleNow = 0;

    function onStop() {
      if (intervalID) {
        clearInterval(intervalID);
        intervalID = undefined;
        updatePendulumAngle(0);
      }
    }

    function onWeightUpdate(bpm) {
      if (bpmNow !== bpm) {
        bpmNow = bpm;
        document.getElementById('bpmLabel').innerHTML = '' + bpmNow;
        document.getElementById('pendulumWeight').setAttribute('transform', 'translate(0 ' + (bpmNow - bpmMin) + ')');
      }
    }

    function onWeightUp() {
      onStop();
      onWeightUpdate(Math.max(bpmMin, bpmNow - 1));
    }

    function onWeightDown() {
      onStop();
      onWeightUpdate(Math.min(bpmMax, bpmNow + 1));
    }

    function getAngelMax() {
      return angleMax - (angleMax - angleMin) * (bpmNow - bpmMin) / (bpmMax - bpmMin);
    }

    function getPendulumAngle(time, period) {
      var a = getAngelMax();
      var q = 0.25 * period;
      var t = (time % period);
      var r = Math.sin(0.5 * Math.PI * t / q);
      return a * r;
    }

    function updatePendulumAngle(angle) {
      if (angleNow !== angle) {
        angleNow = angle;
        document.getElementById('pendulum').setAttribute('transform', 'rotate(' + angle + ' 5 277)');
      }
    }

    function onUpdate() {
      var time = Date.now() - time0;
      var delta = 60 * 1000 / bpmNow;
      var angle = getPendulumAngle(time, 2 * delta);
      updatePendulumAngle(Math.round(angle));
    }

    function toggleUpdate() {
      if (intervalID) {
        onStop();
      } else {
        time0 = Date.now();
        intervalID = setInterval(onUpdate, 100);
      }
    }

    function onKeyDown(event) {
      switch (event.code) {
        case 'ArrowDown':
          onWeightDown();
          break;
        case 'ArrowUp':
          onWeightUp();
          break;
        case 'Space':
          toggleUpdate();
          break;
      }
    }

    document.getElementById('pendulumWeightArrowUp').addEventListener('click', onWeightUp);
    document.getElementById('pendulumWeightArrowDown').addEventListener('click', onWeightDown);
    document.getElementById('pendulumTop').addEventListener('click', toggleUpdate);
    document.addEventListener("keydown", onKeyDown);

  </script>
</svg>
